<svg xmlns="http://www.w3.org/2000/svg" viewBox="-30 -27 36 37" role="img" aria-label="Voyage (proposal, not in use)"><title>Voyage (proposal, not in use)</title><path d="M-4,-18 L1,-4 M-11,-24 L-25.4,-8.4 M-11,-24 L-4,-18" stroke="#2C2F32" stroke-width=".45" fill="none"/><path d="M-19,-8.4 V-19 M-11,-4 V-24 M-4,-4 V-18" stroke="#2C2F32" stroke-width="1.1"/><path d="M1,-4 Q-1,3.6 -8,5.2 L-18,5.2 Q-23.6,4.4 -25,-2 L-25.6,-8.4 L-20.6,-8.4 L-20.6,-4 Z" fill="#F8EEDA" stroke="#2C2F32" stroke-width="1.1" stroke-linejoin="round"/><path d="M0,-1.2 Q-3,3 -8.6,3.4 L-18,3.4 Q-22.4,2.8 -23.8,-1.4" fill="none" stroke="#2C2F32" stroke-width=".6"/><path d="M-17.0,3.6 L-17.6,5" stroke="#2C2F32" stroke-width=".5"/><path d="M-15.5,3.6 L-16.1,5" stroke="#2C2F32" stroke-width=".5"/><path d="M-14.0,3.6 L-14.6,5" stroke="#2C2F32" stroke-width=".5"/><path d="M-12.5,3.6 L-13.1,5" stroke="#2C2F32" stroke-width=".5"/><path d="M-11.0,3.6 L-11.6,5" stroke="#2C2F32" stroke-width=".5"/><path d="M-9.5,3.6 L-10.1,5" stroke="#2C2F32" stroke-width=".5"/><path d="M-8.0,3.6 L-8.6,5" stroke="#2C2F32" stroke-width=".5"/><circle cx="-16" cy="-1.4" r=".65" fill="#2C2F32"/><circle cx="-12" cy="-1.4" r=".65" fill="#2C2F32"/><circle cx="-8" cy="-1.4" r=".65" fill="#2C2F32"/><path d="M-25.6,-8.4 L-20.6,-8.4" stroke="#2C2F32" stroke-width="1.4"/><path d="M-19,-18.6 L-19,-9.8 L-24.6,-9.8 Q-21,-13 -19,-18.6 Z" fill="#F8EEDA" stroke="#2C2F32" stroke-width=".8" stroke-linejoin="round"/><path d="M-16.2,-22 Q-11,-20.4 -5.8,-22 Q-3.4,-15.8 -5.8,-9.6 Q-11,-8.0 -16.2,-9.6 Q-13.799999999999999,-15.8 -16.2,-22 Z" fill="#F8EEDA" stroke="#2C2F32" stroke-width=".9" stroke-linejoin="round"/><path d="M-14.6,-20.8 Q-12.399999999999999,-15.8 -14.6,-10.4" fill="none" stroke="#2C2F32" stroke-width=".5" opacity=".7"/><path d="M-7.199999999999999,-20.8 Q-5.2,-15.8 -7.199999999999999,-10.4" fill="none" stroke="#2C2F32" stroke-width=".5" opacity=".7"/><path d="M-7.8,-16.4 Q-4,-14.799999999999999 -0.20000000000000018,-16.4 Q2.1999999999999997,-11.799999999999999 -0.20000000000000018,-7.2 Q-4,-5.6 -7.8,-7.2 Q-5.4,-11.799999999999999 -7.8,-16.4 Z" fill="#F8EEDA" stroke="#2C2F32" stroke-width=".9" stroke-linejoin="round"/><path d="M-6.199999999999999,-15.2 Q-4.0,-11.799999999999999 -6.199999999999999,-8.0" fill="none" stroke="#2C2F32" stroke-width=".5" opacity=".7"/><path d="M-1.6,-15.2 Q0.3999999999999998,-11.799999999999999 -1.6,-8.0" fill="none" stroke="#2C2F32" stroke-width=".5" opacity=".7"/><path d="M-11,-24 L-5.6,-23 L-11,-22 Z" fill="#2C2F32"/></svg>
